PathFileType	4	(X/Y/Z)	C:/Users/beibeiliu/ov580/test_trc\sequence.31_training_dense_left.trc
DataRate	CameraRate	NumFrames	NumMarkers	Units	OrigDataRate	OrigDataStartFrame	OrigNumFrames
120	120	20	19	mm	120	28	54
Frame#	Time	ThumbCMC			ThumbMCP			ThumbIP			ThumbTip			IndexMCP			IndexPIP			IndexTip			MiddleMCP			MiddlePIP			MiddleTip			RingMCP			RingPIP			RingTip			PinkyMCP			PinkyPIP			PinkyTip			BackHand1			BackHand2			BackHand3	
		X0	Y0	Z0	X1	Y1	Z1	X2	Y2	Z2	X3	Y3	Z3	X4	Y4	Z4	X5	Y5	Z5	X6	Y6	Z6	X7	Y7	Z7	X8	Y8	Z8	X9	Y9	Z9	X10	Y10	Z10	X11	Y11	Z11	X12	Y12	Z12	X13	Y13	Z13	X14	Y14	Z14	X15	Y15	Z15	X16	Y16	Z16	X17	Y17	Z17	X18	Y18	Z18	
27	0.225	-124.587	-0.807847	140.077	-101.675	-14.7684	114.779	-106.115	-15.2125	80.859	-128.031	-18.3991	64.1041	-109.581	27.5974	76.3131	-91.3756	29.5501	53.5878	-85.3788	26.0664	30.7664	-122.255	23.0751	58.6531	-113.998	21.5753	35.6812	-98.6745	25.0451	10.4097	-140.992	8.29676	54.8163	-127.958	6.91774	31.1246	-119.989	7.97305	11.631	-157.714	-8.86384	57.8617	-144.873	-11.3751	43.8866	-138.327	-9.41775	19.4378	-166.432	10.1263	102.345	-182.376	5.32371	128.205	-149.644	22.911	123.55	
28	0.233333	-112.445	6.18845	144.111	-94.9212	-9.38227	121.683	-95.1335	-13.5709	90.7607	-113.982	-18.4976	73.7766	-100.212	32.2702	77.7799	-87.1521	31.2247	57.7146	-74.6253	29.5778	30.7134	-114.242	24.2833	66.2499	-100.57	24.0518	39.9267	-91.276	22.197	18.0336	-126.559	8.6422	57.8652	-113.633	8.95039	37.192	-103.456	8.63562	17.5353	-141.635	-7.63758	64.6285	-129.307	-11.6199	44.5579	-121.048	-8.38479	23.3098	-159.866	9.49316	99.9672	-173.427	6.82781	132.104	-144.713	26.4531	128.515	
29	0.241667	-113.051	23.6044	148.352	-89.6647	11.585	124.153	-80.6375	3.55287	96.2556	-100.539	-10.9371	77.6741	-104.637	42.7476	77.5732	-87.9787	45.2845	56.8426	-73.1134	44.6077	33.4397	-113.874	28.6013	61.7276	-97.6038	28.7887	41.0982	-80.9537	29.4221	16.2085	-118.8	11.6676	61.3591	-104.551	10.3011	41.2035	-93.163	8.40091	20.1751	-126.963	-5.93209	70.2527	-112.785	-7.25467	50.6915	-102.285	-4.03866	31.2359	-153.349	11.5868	106.019	-166.139	7.60078	130.059	-146.062	34.717	127.049	
30	0.25	-128.061	43.3437	137.348	-96.0266	41.6916	119.318	-88.1023	26.8534	99.1613	-98.1881	2.60755	85.3997	-117.536	53.967	65.2101	-104.23	51.2804	48.9665	-87.3326	49.9908	23.8994	-119.739	28.8364	59.6646	-102.005	30.0698	37.0395	-85.5545	30.2474	16.7568	-116.371	12.242	58.8356	-99.7148	10.4422	40.4972	-84.4248	16.6183	22.3823	-115.83	-5.49236	71.5203	-101.953	-5.03611	58.2857	-91.4868	-0.634307	33.5376	-153.516	2.93534	98.8553	-166.819	1.02745	127.962	-159.057	33.3983	116.307	
31	0.258333	-153.841	51.6047	127.69	-120.912	61.0247	108.343	-106.908	45.9706	91.0066	-100.198	18.2768	81.7087	-139.463	43.7534	53.5127	-126.808	50.2452	36.2839	-110.302	50.8766	14.8176	-129.394	25.1758	50.0524	-112.531	28.9924	31.1339	-96.7843	32.4792	8.43402	-118.111	7.81781	61.3761	-104.048	12.6362	44.5985	-88.6913	16.6976	22.0068	-111.227	-4.86183	77.8966	-95.6313	-0.586495	60.756	-88.6484	0.288638	43.2237	-153.129	-4.0707	100.874	-166.64	-3.93945	129.583	-173.198	26.5944	108.113	
32	0.266667	-174.529	40.3537	115.446	-147.241	54.1198	95.9372	-125.237	43.3261	77.5887	-114.898	15.8689	78.0847	-163.16	24.7454	47.9829	-147.28	28.762	25.2777	-132.037	29.0843	4.50066	-143.827	5.76797	47.9136	-129.67	9.20508	25.4109	-114.622	14.7934	1.74955	-130.903	-3.1045	56.454	-115.667	-1.4013	39.3408	-101.707	2.82548	17.5494	-115.422	-10.9261	74.858	-105.7	-3.71453	57.3039	-94.4653	-7.01694	36.2987	-156.573	-17.4152	99.7206	-170.484	-15.5019	129.108	-181.898	3.23112	106.068	
33	0.275	-193.093	25.077	108.704	-165.832	37.0135	83.5672	-142.835	23.2038	64.5563	-131.03	1.92015	68.5836	-179.338	-3.60515	43.4141	-168.72	-1.57617	19.2752	-156.391	-0.403596	-3.69189	-162.909	-17.8604	40.8007	-150.687	-17.5849	19.7443	-138.623	-15.2661	-4.00994	-147.056	-24.4589	50.3485	-134.106	-24.1193	32.5655	-120.979	-22.1682	7.22404	-128.975	-28.6039	66.8069	-120.924	-23.2514	49.9385	-110.234	-31.3725	32.1253	-170.177	-32.2457	98.0751	-178.547	-31.3872	124.89	-196.412	-17.33	102.817	
34	0.283333	-205.093	13.946	106.576	-180.557	27.816	78.6787	-161.71	14.0133	60.6265	-147.583	-11.086	63.134	-201.912	-18.0758	42.758	-190.918	-19.1494	13.68	-182.224	-21.7876	-4.57676	-183.901	-34.2357	38.2777	-172.16	-35.7727	14.4966	-161.863	-35.4194	-12.7308	-165.108	-41.0525	50.0375	-157.475	-40.3226	24.9376	-145.054	-40.6446	0.677058	-147.564	-40.5987	68.1644	-139.394	-39.68	43.7541	-132.856	-45.7625	23.4317	-183.847	-42.086	98.3057	-189.567	-39.0065	129.544	-208.704	-27.4482	104.23	
35	0.291667	-215.181	20.2857	107.312	-192.524	26.6289	74.6972	-176.82	13.0247	57.8374	-163.107	-11.1974	59.1782	-222.544	-15.1359	41.4125	-217.537	-14.5679	12.1555	-208.813	-18.7373	-6.45232	-201.457	-34.3871	37.8328	-197.182	-33.5088	12.1233	-190.92	-35.3016	-14.6495	-183.902	-39.9857	46.8011	-178.251	-41.0436	20.856	-171.481	-40.9848	-1.56856	-165.281	-42.0904	58.269	-158.522	-41.5685	38.0211	-151.253	-48.988	21.3548	-196.579	-41.7401	95.664	-200.061	-37.5953	127.013	-221.421	-20.9519	106.837	
36	0.3	-215.107	35.0546	109.187	-193.215	38.5547	77.2893	-181.42	24.3626	57.4732	-172.131	-3.49307	50.3368	-228.937	6.44698	41.4949	-226.435	7.66444	18.136	-220.707	4.51739	-6.78427	-218.155	-12.4067	37.8282	-215.391	-11.0713	12.9707	-207.447	-15.5004	-14.4526	-200.628	-23.908	44.6579	-196.287	-24.0366	21.106	-192.106	-24.0754	-9.88059	-182.674	-29.5845	52.442	-176.721	-29.1118	33.3932	-170.817	-39.4245	11.7779	-208.153	-28.5154	95.561	-212.073	-25.857	122.649	-229.649	-3.94444	106.013	
37	0.308333	-202.032	48.5289	112.735	-182.022	51.1388	81.1377	-175.524	38.6842	59.5871	-177.238	11.2081	47.7068	-224.779	39.7879	40.7003	-221.865	44.1488	18.0586	-218.74	45.5986	-5.52583	-220.176	17.1807	38.9658	-216.844	20.3233	12.0627	-212.31	19.3549	-14.8229	-209.419	-0.465213	41.0665	-206.623	4.72138	13.8766	-201.727	1.80176	-13.5307	-195.277	-14.7373	52.2513	-188.2	-12.8131	30.0919	-190.679	-13.4362	9.40437	-219.829	-4.15135	94.0791	-219.377	-11.7786	120.547	-231.413	23.7615	105.611	
38	0.316667	-178.76	54.85	119.536	-155.99	57.6051	88.1353	-158.942	48.915	59.6858	-172.719	27.8047	50.2033	-201.272	73.3489	53.6634	-195.379	82.6888	27.635	-193.858	80.6382	2.72859	-206.92	57.0015	43.0285	-202.218	58.4162	15.6254	-199.541	60.7216	-13.9436	-206.073	36.3419	39.7067	-201.923	39.0147	16.0532	-198.081	42.0249	-8.9897	-200.715	14.5644	45.5941	-195.666	14.5506	25.5728	-198.028	18.3849	-0.516478	-217.729	19.9938	91.1713	-220.35	16.6069	118.332	-215.659	50.571	111.462	
39	0.325	-153.704	48.4526	123.755	-135.23	45.5508	94.9785	-140.224	46.4798	61.9027	-165.296	36.6107	47.242	-162.794	87.8786	58.4804	-156.247	94.2144	40.434	-152.412	99.3737	12.6015	-179.611	75.8077	45.9268	-172.23	81.4767	21.2319	-168.876	84.9359	-2.52103	-185.44	60.458	45.1321	-180.423	63.7788	19.5677	-176.872	69.2815	-6.82534	-192.464	38.7327	43.9791	-186.188	41.1812	24.7303	-184.218	48.503	1.25882	-204.021	47.0678	94.4339	-209.412	34.0638	118.679	-186.165	63.0118	119.924	
40	0.333333	-129.284	37.1575	127.751	-116.878	32.5339	96.1076	-119.994	37.4057	66.5125	-143.798	38.1782	49.0192	-129.431	82.7025	65.8404	-117.615	87.4382	46.0119	-114.495	90.5192	21.392	-147.5	77.4181	53.3627	-139.145	81.9915	30.0624	-127.853	87.7075	4.08008	-161.637	64.4343	48.2657	-153.438	69.2314	26.2727	-143.351	74.9592	-0.191151	-173.808	47.9109	50.8581	-168.529	47.5685	28.6864	-162.955	57.9415	8.08825	-184.299	54.8179	93.8118	-191.845	43.7157	122.559	-162.993	62.0091	123.274	
41	0.341667	-113.23	20.3445	134.972	-101.388	9.36211	105.741	-101.809	16.2161	70.9566	-125.196	23.2719	57.0355	-96.0215	59.0206	74.4099	-84.3599	60.0639	54.2205	-78.422	60.4602	28.932	-115.397	59.1204	56.0282	-104.057	59.719	34.1256	-96.4456	59.965	7.09997	-134.387	50.3473	51.7317	-121.185	50.8835	31.1165	-110.092	52.3587	6.83115	-152.473	37.1513	50.3032	-143.126	35.1769	31.2376	-138.177	41.4643	7.00845	-158.08	49.0877	98.8379	-168.247	41.8219	125.932	-136.67	50.9877	128.932	
42	0.35	-102.728	11.062	138.875	-84.4926	-3.37125	113.622	-90.7367	0.144727	82.0473	-108.15	2.98598	66.5031	-75.5191	38.965	79.3573	-61.4874	33.1835	56.9331	-51.333	32.0702	33.3921	-93.8125	35.1197	58.0273	-83.4806	31.2588	37.0613	-67.5245	29.7377	12.3079	-113.889	26.2237	54.7345	-102.893	21.9544	31.0196	-88.4371	21.0014	11.285	-132.964	14.2756	54.2247	-122.009	10.242	36.5291	-115.365	13.6958	15.4447	-142.848	34.6694	101.521	-156.51	31.1106	126.347	-123.987	40.5038	129.14	
43	0.358333	-102.461	28.5443	141.386	-82.912	13.1066	117.917	-79.3118	6.35424	91.0196	-100.583	-1.05549	68.7723	-84.0507	45.6276	70.9988	-66.1436	45.3175	57.0137	-55.3042	39.1921	35.2427	-98.8579	32.8236	58.2256	-79.438	30.2953	36.2492	-66.763	23.2581	15.3014	-107.85	18.8807	52.9686	-96.9743	13.5992	36.44	-82.1626	8.02825	13.479	-121.403	3.32969	57.5029	-111.613	-3.8136	42.6394	-104.86	-3.91376	23.3605	-143.027	28.5769	95.4497	-161.672	24.2792	120.976	-131.08	46.9751	123.809	
44	0.366667	-122.106	49.4986	134.393	-89.0296	42.9385	114.883	-81.7773	29.8759	84.9807	-98.6363	10.062	75.301	-106.343	60.0134	62.8113	-89.982	59.9542	45.1958	-72.0059	53.9973	23.8581	-111.638	39.4412	53.7566	-94.1644	34.8028	34.2785	-73.8387	32.6324	11.9554	-112.212	17.4738	50.8805	-98.6938	14.8396	36.7029	-79.3064	10.816	16.0107	-119.424	-0.682316	64.6426	-101.493	-5.98085	46.7369	-91.1173	-5.36183	26.3566	-151.642	19.8634	93.9548	-165.493	20.3029	118.849	-151.039	51.4735	109.81	
45	0.375	-145.331	63.579	122.688	-113.342	65.9803	103.982	-100.215	52.1914	85.4901	-99.7152	28.6857	76.1607	-132.174	61.9459	50.8009	-114.359	67.2724	32.3323	-96.725	65.8098	14.2916	-124.429	39.3295	45.1542	-103.591	37.9515	26.2122	-86.7685	40.7715	8.14395	-119.664	23.2123	51.9048	-102.329	22.2421	37.1427	-80.4352	23.4095	15.1139	-111.382	3.68281	64.9949	-95.3993	2.43979	54.2469	-86.4783	1.49874	35.5753	-154.578	9.15118	94.0525	-171.535	11.0805	119.398	-170.635	41.7916	104.107	
46	0.383333	-173.408	59.7015	108.962	-143.986	73.7431	92.4251	-124.59	61.3185	75.1121	-114.791	33.2859	75.574	-156.806	48.2062	42.011	-142.236	54.0128	23.561	-121.876	56.3767	4.81232	-140.887	31.4153	39.1863	-121.477	36.6086	18.541	-103.489	40.6938	1.8835	-124.691	15.5206	52.0398	-111.329	23.7832	33.3417	-91.667	26.6948	15.5929	-111.963	8.21644	66.0644	-101.081	12.9574	57.2502	-85.9838	11.5596	39.5012	-157.945	3.88776	91.8221	-171.037	-0.0244333	120.731	-184.823	25.8921	98.0721	
